<?xml version="1.0" encoding="UTF-8" standalone="no"?>
<svg
   xmlns:dc="http://purl.org/dc/elements/1.1/"
   xmlns:cc="http://creativecommons.org/ns#"
   xmlns:rdf="http://www.w3.org/1999/02/22-rdf-syntax-ns#"
   xmlns:svg="http://www.w3.org/2000/svg"
   xmlns="http://www.w3.org/2000/svg"
   xmlns:sodipodi="http://sodipodi.sourceforge.net/DTD/sodipodi-0.dtd"
   xmlns:inkscape="http://www.inkscape.org/namespaces/inkscape"
   version="1.1"
   x="0px"
   y="0px"
   viewBox="0 0 62.5 100"
   xml:space="preserve"
   id="svg2"
   inkscape:version="0.91 r13725"
   sodipodi:docname="marker.svg"
   width="62.5"
   height="100"><metadata
     id="metadata12"><rdf:RDF><cc:Work
         rdf:about=""><dc:format>image/svg+xml</dc:format><dc:type
           rdf:resource="http://purl.org/dc/dcmitype/StillImage" /><dc:title></dc:title></cc:Work></rdf:RDF></metadata><defs
     id="defs10" /><sodipodi:namedview
     pagecolor="#ffffff"
     bordercolor="#666666"
     borderopacity="1"
     objecttolerance="10"
     gridtolerance="10"
     guidetolerance="10"
     inkscape:pageopacity="0"
     inkscape:pageshadow="2"
     inkscape:window-width="640"
     inkscape:window-height="480"
     id="namedview8"
     showgrid="false"
     inkscape:zoom="8.3772355"
     inkscape:cx="5.3305621"
     inkscape:cy="82.849526"
     inkscape:window-x="0"
     inkscape:window-y="0"
     inkscape:window-maximized="0"
     inkscape:current-layer="svg2" /><path
     style="fill:#FF0000"
     d="m 31.232247,12.781146 c 5.017,0 9.729,1.953 13.269,5.499 3.54,3.534 5.493,8.246 5.493,13.251 0,5.005 -1.953,9.717 -5.408,13.165 -0.524,0.519 -6.994,6.952 -13.354,17.005 -6.312,-10.034 -12.757,-16.443 -13.245,-16.919 -3.54,-3.534 -5.493,-8.246 -5.493,-13.251 0,-5.005 1.953,-9.717 5.493,-13.257 3.54,-3.54 8.149,-5.493 13.245,-5.493 m 0,-12.50000054 c -7.984,0 -15.979,3.05200004 -22.0829991,9.15500004 -12.207,12.2010005 -12.207,31.9880005 0,44.1890005 0,0 22.0829991,21.655 22.0829991,46.655004 0,-25.000004 22.106,-46.655004 22.106,-46.655004 12.207,-12.201 12.207,-31.988 0,-44.1890005 -6.103,-6.103 -14.098,-9.15500004 -22.106,-9.15500004 l 0,0 z"
     id="path4"
     inkscape:connector-curvature="0" /><path
     style="fill:#FF0000"
     d="m 38.507145,31.024697 c 0,3.455 -2.795,6.25 -6.262,6.25 -3.547,0 -6.238,-2.795 -6.238,-6.25 0,-3.455 2.691,-6.25 6.238,-6.25 3.467,0 6.262,2.795 6.262,6.25 z"
     id="path6"
     inkscape:connector-curvature="0" /></svg>
